<svg xmlns="http://www.w3.org/2000/svg" width="183" height="22" viewBox="0 0 183 22">
    <g fill="none">
        <path fill="#21BFFC" d="M136.235 1.76c4.29 0 7.645 3.3 7.645 7.59 0 4.4-3.355 7.81-7.645 7.81-4.29 0-7.645-3.41-7.645-7.81 0-4.29 3.355-7.59 7.645-7.59zm41.195 0c2.75 0 4.235 1.485 4.235 1.485l-.935 1.705s-1.375-1.265-3.245-1.265c-1.595 0-2.695.99-2.695 2.145 0 3.08 7.205 2.255 7.205 7.095 0 2.31-1.76 4.18-4.73 4.18-3.135 0-4.95-1.98-4.95-1.98l1.155-1.54.024.023c.207.197 1.728 1.572 3.771 1.572 1.375 0 2.585-.77 2.585-2.2 0-3.245-7.205-2.53-7.205-7.095 0-2.31 1.98-4.125 4.785-4.125zm-69.575 0c2.75 0 4.235 1.485 4.235 1.485l-.935 1.705s-1.375-1.265-3.245-1.265c-1.595 0-2.695.99-2.695 2.145 0 3.08 7.205 2.255 7.205 7.095 0 2.31-1.76 4.18-4.73 4.18-3.135 0-4.95-1.98-4.95-1.98l1.155-1.54.024.023c.207.197 1.728 1.572 3.771 1.572 1.375 0 2.585-.77 2.585-2.2 0-3.245-7.205-2.53-7.205-7.095 0-2.31 1.98-4.125 4.785-4.125zm13.64.275c2.695 0 4.675 1.815 4.675 4.675 0 2.805-1.98 4.73-4.675 4.73h-3.355v5.5h-2.09V2.035h5.445zm30.03 0c1.54 0 2.2.11 2.805.33 1.54.55 2.53 2.09 2.53 4.015 0 1.87-1.045 3.52-2.695 4.015v.055s.165.165.44.66l3.135 5.775h-2.365l-3.135-5.94h-3.19v5.94h-2.09V2.035h4.565zm19.305 0V3.85h-5.115v13.035h-2.09V3.85h-5.06V2.035h12.265zm-34.595 1.65c-3.025 0-5.5 2.42-5.5 5.665 0 3.355 2.475 5.885 5.5 5.885s5.5-2.53 5.5-5.885c0-3.245-2.42-5.665-5.5-5.665zm-15.125.11h-3.025V9.57h3.025c1.815 0 2.86-1.1 2.86-2.915s-1.1-2.86-2.86-2.86zm30.415.055h-2.475v5.335h3.025c1.595 0 2.64-1.045 2.64-2.695 0-1.1-.44-1.87-1.155-2.31-.385-.22-.88-.33-2.035-.33z"/>
        <path fill="#484848" d="M39.105 19.415l1.485 2.475H27.005v-2.475h12.1zM93.5 2.035c1.54 0 2.31.11 2.97.44 1.54.715 2.475 2.2 2.475 4.125 0 1.815-.935 3.41-2.42 4.07.11.11.22.33.44.66l3.08 5.61h-3.3v-.055L93.83 11.44h-2.145v5.445H88.66V2.035h4.84zm-63.47 0v14.85h-3.025V2.035h3.025zm19.305 0V4.51h-5.94v3.63h4.785v2.53h-4.785v3.685h6.27v2.53H40.37V2.035h8.965zm6.215 0v12.32h6.215v2.53h-9.24V2.035h3.025zm11.825 0v12.32h6.215v2.53h-9.24V2.035h3.025zm18.095 0V4.51h-5.995v3.63h4.785v2.53h-4.785v3.685H85.8v2.53h-9.35V2.035h9.02zm-47.52 0l-4.4 7.095 4.565 7.755H34.43l-4.345-7.59 4.29-7.26h3.575zm55.44 2.53h-1.705V8.91h2.09c1.375 0 2.2-.825 2.2-2.2 0-1.54-.77-2.145-2.585-2.145z"/>
        <path fill="#21BFFC" d="M12.595.11L22 12.595l-.99.99c-.715.66-1.705.88-2.585.605l-1.65-.55-4.455 1.045-4.62-6.93-2.31.715h2.09l6.985 10.945.33.495 1.65.55c.99.275 1.54.715 1.43 1.485L13.75 20.9 1.265 12.595V8.36l-.99-.99 8.25-4.125 7.26 7.315 1.045-1.045-3.08-3.135L12.595.11zM3.96 15.18l1.485 1.045L4.4 16.5c-.99.275-2.035.22-2.97-.165l2.53-1.155zm15.565-4.345l-.605.66.275.275c.55.495 1.045.44 1.32.11l-.99-1.045z"/>
    </g>
</svg>
